{"asset":{"version":"2.0","generator":"Blockbench 5.0.7 glTF exporter"},"scenes":[{"nodes":[13],"name":"blockbench_export"}],"scene":0,"nodes":[{"translation":[0.015625,-0.015625,0.046875],"name":"feet"},{"translation":[0.0625,0.03125,-0.0625],"name":"left","children":[0]},{"translation":[-0.03125,-0.015625,0.046875],"name":"feet2"},{"translation":[-0.046875,0.03125,-0.0625],"name":"right","children":[2]},{"name":"legs","children":[1,3]},{"translation":[0.009375000000000001,-0.171875,0.046875],"name":"hand"},{"translation":[0.046875,0.1875,0.046875],"name":"left2","children":[5]},{"translation":[0.006249999999999999,-0.171875,0.03125],"name":"hand2"},{"translation":[-0.0625,0.1875,0.046875],"name":"right2","children":[7]},{"name":"arms","children":[6,8]},{"translation":[0,0.025,-0.1375],"name":"tail"},{"translation":[0,0.21875,0.078125],"name":"head"},{"name":"body","children":[4,9,10,11]},{"name":"body","mesh":0,"children":[12],"skin":0}],"bufferViews":[{"buffer":0,"byteOffset":0,"byteLength":36744,"target":34962,"byteStride":12},{"buffer":0,"byteOffset":36744,"byteLength":36744,"target":34962,"byteStride":12},{"buffer":0,"byteOffset":73488,"byteLength":24496,"target":34962,"byteStride":8},{"buffer":0,"byteOffset":97984,"byteLength":24496,"target":34962,"byteStride":8},{"buffer":0,"byteOffset":122480,"byteLength":48992,"target":34962,"byteStride":16},{"buffer":0,"byteOffset":171472,"byteLength":8892,"target":34963},{"buffer":0,"byteOffset":180364,"byteLength":832},{"buffer":0,"byteOffset":181196,"byteLength":4},{"buffer":0,"byteOffset":181200,"byteLength":16},{"buffer":0,"byteOffset":181216,"byteLength":4},{"buffer":0,"byteOffset":181220,"byteLength":16},{"buffer":0,"byteOffset":181236,"byteLength":4},{"buffer":0,"byteOffset":181240,"byteLength":16},{"buffer":0,"byteOffset":181256,"byteLength":4},{"buffer":0,"byteOffset":181260,"byteLength":16},{"buffer":0,"byteOffset":181276,"byteLength":4},{"buffer":0,"byteOffset":181280,"byteLength":16},{"buffer":0,"byteOffset":181296,"byteLength":4},{"buffer":0,"byteOffset":181300,"byteLength":16},{"buffer":0,"byteOffset":181316,"byteLength":4},{"buffer":0,"byteOffset":181320,"byteLength":16},{"buffer":0,"byteOffset":181336,"byteLength":4},{"buffer":0,"byteOffset":181340,"byteLength":16},{"buffer":0,"byteOffset":181356,"byteLength":4},{"buffer":0,"byteOffset":181360,"byteLength":16},{"buffer":0,"byteOffset":181376,"byteLength":4},{"buffer":0,"byteOffset":181380,"byteLength":16},{"buffer":0,"byteOffset":181396,"byteLength":4},{"buffer":0,"byteOffset":181400,"byteLength":16},{"buffer":0,"byteOffset":181416,"byteLength":4},{"buffer":0,"byteOffset":181420,"byteLength":16},{"buffer":0,"byteOffset":181436,"byteLength":108},{"buffer":0,"byteOffset":181544,"byteLength":432},{"buffer":0,"byteOffset":181976,"byteLength":8},{"buffer":0,"byteOffset":181984,"byteLength":32},{"buffer":0,"byteOffset":182016,"byteLength":12},{"buffer":0,"byteOffset":182028,"byteLength":48},{"buffer":0,"byteOffset":182076,"byteLength":12},{"buffer":0,"byteOffset":182088,"byteLength":48},{"buffer":0,"byteOffset":182136,"byteLength":12},{"buffer":0,"byteOffset":182148,"byteLength":48},{"buffer":0,"byteOffset":182196,"byteLength":12},{"buffer":0,"byteOffset":182208,"byteLength":48},{"buffer":0,"byteOffset":182256,"byteLength":12},{"buffer":0,"byteOffset":182268,"byteLength":48},{"buffer":0,"byteOffset":182316,"byteLength":8},{"buffer":0,"byteOffset":182324,"byteLength":32},{"buffer":0,"byteOffset":182356,"byteLength":12},{"buffer":0,"byteOffset":182368,"byteLength":36},{"buffer":0,"byteOffset":182404,"byteLength":12},{"buffer":0,"byteOffset":182416,"byteLength":48},{"buffer":0,"byteOffset":182464,"byteLength":12},{"buffer":0,"byteOffset":182476,"byteLength":48},{"buffer":0,"byteOffset":182524,"byteLength":12},{"buffer":0,"byteOffset":182536,"byteLength":48},{"buffer":0,"byteOffset":182584,"byteLength":12},{"buffer":0,"byteOffset":182596,"byteLength":48},{"buffer":0,"byteOffset":182644,"byteLength":8},{"buffer":0,"byteOffset":182652,"byteLength":32},{"buffer":0,"byteOffset":182684,"byteLength":4},{"buffer":0,"byteOffset":182688,"byteLength":16},{"buffer":0,"byteOffset":182704,"byteLength":8},{"buffer":0,"byteOffset":182712,"byteLength":24},{"buffer":0,"byteOffset":182736,"byteLength":8},{"buffer":0,"byteOffset":182744,"byteLength":32},{"buffer":0,"byteOffset":182776,"byteLength":8},{"buffer":0,"byteOffset":182784,"byteLength":32},{"buffer":0,"byteOffset":182816,"byteLength":8},{"buffer":0,"byteOffset":182824,"byteLength":32},{"buffer":0,"byteOffset":182856,"byteLength":8},{"buffer":0,"byteOffset":182864,"byteLength":32},{"buffer":0,"byteOffset":182896,"byteLength":4},{"buffer":0,"byteOffset":182900,"byteLength":16},{"buffer":0,"byteOffset":182916,"byteLength":8},{"buffer":0,"byteOffset":182924,"byteLength":32},{"buffer":0,"byteOffset":182956,"byteLength":12},{"buffer":0,"byteOffset":182968,"byteLength":48},{"buffer":0,"byteOffset":183016,"byteLength":12},{"buffer":0,"byteOffset":183028,"byteLength":48},{"buffer":0,"byteOffset":183076,"byteLength":12},{"buffer":0,"byteOffset":183088,"byteLength":48},{"buffer":0,"byteOffset":183136,"byteLength":12},{"buffer":0,"byteOffset":183148,"byteLength":48},{"buffer":0,"byteOffset":183196,"byteLength":12},{"buffer":0,"byteOffset":183208,"byteLength":48},{"buffer":0,"byteOffset":183256,"byteLength":12},{"buffer":0,"byteOffset":183268,"byteLength":48},{"buffer":0,"byteOffset":183316,"byteLength":4},{"buffer":0,"byteOffset":183320,"byteLength":12},{"buffer":0,"byteOffset":183332,"byteLength":8},{"buffer":0,"byteOffset":183340,"byteLength":32},{"buffer":0,"byteOffset":183372,"byteLength":8},{"buffer":0,"byteOffset":183380,"byteLength":32},{"buffer":0,"byteOffset":183412,"byteLength":8},{"buffer":0,"byteOffset":183420,"byteLength":32},{"buffer":0,"byteOffset":183452,"byteLength":8},{"buffer":0,"byteOffset":183460,"byteLength":32},{"buffer":0,"byteOffset":183492,"byteLength":8},{"buffer":0,"byteOffset":183500,"byteLength":32},{"buffer":0,"byteOffset":183532,"byteLength":8},{"buffer":0,"byteOffset":183540,"byteLength":32}],"buffers":[{"byteLength":183572,"uri":"data:application/octet-stream;base64,"}],"accessors":[{"bufferView":0,"componentType":5126,"count":3062,"max":[0.11002062261104584,0.28781500458717346,0.1522749960422516],"min":[-0.11002062261104584,-0.001710625016130507,-0.40478938817977905],"type":"VEC3"},{"bufferView":1,"componentType":5126,"count":3062,"max":[0.9988294243812561,0.9839720726013184,0.9821813106536865],"min":[-0.9995099902153015,-0.9999997615814209,-0.999996542930603],"type":"VEC3"},{"bufferView":2,"componentType":5126,"count":3062,"max":[0.9876999855041504,0.9953518509864807],"min":[0,0],"type":"VEC2"},{"bufferView":3,"componentType":5123,"count":3062,"max":[0,12,0,0],"min":[0,0,0,0],"type":"VEC4"},{"bufferView":4,"componentType":5126,"count":3062,"max":[0,1,0,0],"min":[0,1,0,0],"type":"VEC4"},{"bufferView":5,"componentType":5123,"count":4446,"max":[3061],"min":[0],"type":"SCALAR"},{"bufferView":6,"componentType":5126,"count":13,"max":[1,0,0,0,0,1,0,0,0,0,1,0,0.078125,0,0.13750000298023224,1],"min":[1,0,0,0,0,1,0,0,0,0,1,0,-0.078125,-0.21875,-0.09375,1],"type":"MAT4"},{"bufferView":7,"componentType":5126,"count":1,"max":[0],"min":[0],"type":"SCALAR"},{"bufferView":8,"componentType":5126,"count":1,"max":[0,0,0,1],"min":[0,0,0,1],"type":"VEC4"},{"bufferView":9,"componentType":5126,"count":1,"max":[0],"min":[0],"type":"SCALAR"},{"bufferView":10,"componentType":5126,"count":1,"max":[0,0,0,1],"min":[0,0,0,1],"type":"VEC4"},{"bufferView":11,"componentType":5126,"count":1,"max":[0],"min":[0],"type":"SCALAR"},{"bufferView":12,"componentType":5126,"count":1,"max":[0,0,0,1],"min":[0,0,0,1],"type":"VEC4"},{"bufferView":13,"componentType":5126,"count":1,"max":[0],"min":[0],"type":"SCALAR"},{"bufferView":14,"componentType":5126,"count":1,"max":[0,0,0,1],"min":[0,0,0,1],"type":"VEC4"},{"bufferView":15,"componentType":5126,"count":1,"max":[0],"min":[0],"type":"SCALAR"},{"bufferView":16,"componentType":5126,"count":1,"max":[0,0,0,1],"min":[0,0,0,1],"type":"VEC4"},{"bufferView":17,"componentType":5126,"count":1,"max":[0],"min":[0],"type":"SCALAR"},{"bufferView":18,"componentType":5126,"count":1,"max":[0,0,0,1],"min":[0,0,0,1],"type":"VEC4"},{"bufferView":19,"componentType":5126,"count":1,"max":[0],"min":[0],"type":"SCALAR"},{"bufferView":20,"componentType":5126,"count":1,"max":[0,0,0,1],"min":[0,0,0,1],"type":"VEC4"},{"bufferView":21,"componentType":5126,"count":1,"max":[0],"min":[0],"type":"SCALAR"},{"bufferView":22,"componentType":5126,"count":1,"max":[0,0,0,1],"min":[0,0,0,1],"type":"VEC4"},{"bufferView":23,"componentType":5126,"count":1,"max":[0],"min":[0],"type":"SCALAR"},{"bufferView":24,"componentType":5126,"count":1,"max":[0,0,0,1],"min":[0,0,0,1],"type":"VEC4"},{"bufferView":25,"componentType":5126,"count":1,"max":[0],"min":[0],"type":"SCALAR"},{"bufferView":26,"componentType":5126,"count":1,"max":[0,0,0,1],"min":[0,0,0,1],"type":"VEC4"},{"bufferView":27,"componentType":5126,"count":1,"max":[0],"min":[0],"type":"SCALAR"},{"bufferView":28,"componentType":5126,"count":1,"max":[0,0,0,1],"min":[0,0,0,1],"type":"VEC4"},{"bufferView":29,"componentType":5126,"count":1,"max":[0],"min":[0],"type":"SCALAR"},{"bufferView":30,"componentType":5126,"count":1,"max":[0,0,0,1],"min":[0,0,0,1],"type":"VEC4"},{"bufferView":31,"componentType":5126,"count":27,"max":[1.5],"min":[0],"type":"SCALAR"},{"bufferView":32,"componentType":5126,"count":27,"max":[0.000978265656158328,0.0003356657980475575,0,1],"min":[-0.0009198298212140799,-0.0000779546462581493,-0.4274321496486664,0.904047429561615],"type":"VEC4"},{"bufferView":33,"componentType":5126,"count":2,"max":[2],"min":[0],"type":"SCALAR"},{"bufferView":34,"componentType":5126,"count":2,"max":[0.10886687785387039,0,0,0.9940563440322876],"min":[0.10886687785387039,0,0,0.9940563440322876],"type":"VEC4"},{"bufferView":35,"componentType":5126,"count":3,"max":[2],"min":[0],"type":"SCALAR"},{"bufferView":36,"componentType":5126,"count":3,"max":[0.08715574443340302,0,0,0.9961947202682495],"min":[-0.3420201539993286,0,0,0.9396926164627075],"type":"VEC4"},{"bufferView":37,"componentType":5126,"count":3,"max":[2],"min":[0],"type":"SCALAR"},{"bufferView":38,"componentType":5126,"count":3,"max":[0.13052618503570557,0,0,0.9914448857307434],"min":[-0.15212339162826538,0,0,0.9883615374565125],"type":"VEC4"},{"bufferView":39,"componentType":5126,"count":3,"max":[2],"min":[0],"type":"SCALAR"},{"bufferView":40,"componentType":5126,"count":3,"max":[0.2164396196603775,0,0,0.9961947202682495],"min":[-0.08715574443340302,0,0,0.9762960076332092],"type":"VEC4"},{"bufferView":41,"componentType":5126,"count":3,"max":[2],"min":[0],"type":"SCALAR"},{"bufferView":42,"componentType":5126,"count":3,"max":[-0.02181488461792469,0,0,0.9997619986534119],"min":[-0.4226182699203491,0,0,0.9063078165054321],"type":"VEC4"},{"bufferView":43,"componentType":5126,"count":3,"max":[2],"min":[0],"type":"SCALAR"},{"bufferView":44,"componentType":5126,"count":3,"max":[-0.1515445113182068,0.08614138513803482,0.009949345141649246,0.986245334148407],"min":[-0.15179768204689026,-0.06464193761348724,-0.013258426450192928,0.9846004843711853],"type":"VEC4"},{"bufferView":45,"componentType":5126,"count":2,"max":[0.5],"min":[0],"type":"SCALAR"},{"bufferView":46,"componentType":5126,"count":2,"max":[0.3420201539993286,0,0,0.9396926164627075],"min":[0.3420201539993286,0,0,0.9396926164627075],"type":"VEC4"},{"bufferView":47,"componentType":5126,"count":3,"max":[0.5],"min":[0],"type":"SCALAR"},{"bufferView":48,"componentType":5126,"count":3,"max":[0,0.0625,0],"min":[0,0.03125,0],"type":"VEC3"},{"bufferView":49,"componentType":5126,"count":3,"max":[0.5],"min":[0],"type":"SCALAR"},{"bufferView":50,"componentType":5126,"count":3,"max":[-0.04361938685178757,0,0,0.9990482330322266],"min":[-0.7372773289680481,0,0,0.6755902171134949],"type":"VEC4"},{"bufferView":51,"componentType":5126,"count":3,"max":[0.5],"min":[0],"type":"SCALAR"},{"bufferView":52,"componentType":5126,"count":3,"max":[0.5,0,0,0.9320078492164612],"min":[-0.36243805289268494,0,0,0.8660253882408142],"type":"VEC4"},{"bufferView":53,"componentType":5126,"count":3,"max":[0.5],"min":[0],"type":"SCALAR"},{"bufferView":54,"componentType":5126,"count":3,"max":[0.4617486000061035,0,0,0.9063078165054321],"min":[-0.4226182699203491,0,0,0.8870108127593994],"type":"VEC4"},{"bufferView":55,"componentType":5126,"count":3,"max":[0.5],"min":[0],"type":"SCALAR"},{"bufferView":56,"componentType":5126,"count":3,"max":[0.04361938685178757,0,0,0.9990482330322266],"min":[-0.751839816570282,0,0,0.659345805644989],"type":"VEC4"},{"bufferView":57,"componentType":5126,"count":2,"max":[0.5],"min":[0],"type":"SCALAR"},{"bufferView":58,"componentType":5126,"count":2,"max":[-0.19509032368659973,0,0,0.9807852506637573],"min":[-0.19509032368659973,0,0,0.9807852506637573],"type":"VEC4"},{"bufferView":59,"componentType":5126,"count":1,"max":[0],"min":[0],"type":"SCALAR"},{"bufferView":60,"componentType":5126,"count":1,"max":[-0.2164396196603775,0,0,0.9762960076332092],"min":[-0.2164396196603775,0,0,0.9762960076332092],"type":"VEC4"},{"bufferView":61,"componentType":5126,"count":2,"max":[0.125],"min":[0],"type":"SCALAR"},{"bufferView":62,"componentType":5126,"count":2,"max":[0,0.0625,0],"min":[0,0,0],"type":"VEC3"},{"bufferView":63,"componentType":5126,"count":2,"max":[0.125],"min":[0],"type":"SCALAR"},{"bufferView":64,"componentType":5126,"count":2,"max":[0.4809887707233429,0,0,0.9978589415550232],"min":[0.06540312618017197,0,0,0.8767267465591431],"type":"VEC4"},{"bufferView":65,"componentType":5126,"count":2,"max":[0.125],"min":[0],"type":"SCALAR"},{"bufferView":66,"componentType":5126,"count":2,"max":[0.44228869676589966,0,0,1],"min":[0,0,0,0.8968727588653564],"type":"VEC4"},{"bufferView":67,"componentType":5126,"count":2,"max":[0.125],"min":[0],"type":"SCALAR"},{"bufferView":68,"componentType":5126,"count":2,"max":[0.44228869676589966,0,0,1],"min":[0,0,0,0.8968727588653564],"type":"VEC4"},{"bufferView":69,"componentType":5126,"count":2,"max":[0.125],"min":[0],"type":"SCALAR"},{"bufferView":70,"componentType":5126,"count":2,"max":[0.5187732577323914,0,0,0.9914448857307434],"min":[0.13052618503570557,0,0,0.8549118638038635],"type":"VEC4"},{"bufferView":71,"componentType":5126,"count":1,"max":[0],"min":[0],"type":"SCALAR"},{"bufferView":72,"componentType":5126,"count":1,"max":[-0.3826834261417389,0,0,0.9238795042037964],"min":[-0.3826834261417389,0,0,0.9238795042037964],"type":"VEC4"},{"bufferView":73,"componentType":5126,"count":2,"max":[0.5],"min":[0],"type":"SCALAR"},{"bufferView":74,"componentType":5126,"count":2,"max":[-0.19509032368659973,0,0,0.9807852506637573],"min":[-0.19509032368659973,0,0,0.9807852506637573],"type":"VEC4"},{"bufferView":75,"componentType":5126,"count":3,"max":[0.5],"min":[0],"type":"SCALAR"},{"bufferView":76,"componentType":5126,"count":3,"max":[-0.751839816570282,0,0,0.659345805644989],"min":[-0.8870108127593994,0,0,0.4617486000061035],"type":"VEC4"},{"bufferView":77,"componentType":5126,"count":3,"max":[0.5],"min":[0],"type":"SCALAR"},{"bufferView":78,"componentType":5126,"count":3,"max":[0.8968727588653564,0,0,0.6259234547615051],"min":[0.7798844575881958,0,0,0.44228869676589966],"type":"VEC4"},{"bufferView":79,"componentType":5126,"count":3,"max":[0.5],"min":[0],"type":"SCALAR"},{"bufferView":80,"componentType":5126,"count":3,"max":[0.9320078492164612,0,0,0.591309666633606],"min":[0.8064445853233337,0,0,0.36243805289268494],"type":"VEC4"},{"bufferView":81,"componentType":5126,"count":3,"max":[0.5],"min":[0],"type":"SCALAR"},{"bufferView":82,"componentType":5126,"count":3,"max":[-0.8191520571708679,0,0,0.5735764503479004],"min":[-0.9063078165054321,0,0,0.4226182699203491],"type":"VEC4"},{"bufferView":83,"componentType":5126,"count":3,"max":[0.5],"min":[0],"type":"SCALAR"},{"bufferView":84,"componentType":5126,"count":3,"max":[0.6755902171134949,0,0,0.8191520571708679],"min":[0.5735764503479004,0,0,0.7372773289680481],"type":"VEC4"},{"bufferView":85,"componentType":5126,"count":3,"max":[0.5],"min":[0],"type":"SCALAR"},{"bufferView":86,"componentType":5126,"count":3,"max":[0,0,0,1],"min":[-0.1736481785774231,0,0,0.9848077297210693],"type":"VEC4"},{"bufferView":87,"componentType":5126,"count":1,"max":[0],"min":[0],"type":"SCALAR"},{"bufferView":88,"componentType":5126,"count":1,"max":[0,-0.0625,0],"min":[0,-0.0625,0],"type":"VEC3"},{"bufferView":89,"componentType":5126,"count":2,"max":[0.25],"min":[0],"type":"SCALAR"},{"bufferView":90,"componentType":5126,"count":2,"max":[-0.04361938685178757,0,0,0.9990482330322266],"min":[-0.6427876353263855,0,0,0.7660444378852844],"type":"VEC4"},{"bufferView":91,"componentType":5126,"count":2,"max":[0.25],"min":[0],"type":"SCALAR"},{"bufferView":92,"componentType":5126,"count":2,"max":[0.237685889005661,0,0,0.9978589415550232],"min":[-0.06540312618017197,0,0,0.9713420867919922],"type":"VEC4"},{"bufferView":93,"componentType":5126,"count":2,"max":[0.25],"min":[0],"type":"SCALAR"},{"bufferView":94,"componentType":5126,"count":2,"max":[0.2164396196603775,0,0,0.9990482330322266],"min":[-0.04361938685178757,0,0,0.9762960076332092],"type":"VEC4"},{"bufferView":95,"componentType":5126,"count":2,"max":[0.25],"min":[0],"type":"SCALAR"},{"bufferView":96,"componentType":5126,"count":2,"max":[-0.06540312618017197,0,0,0.9978589415550232],"min":[-0.6087614297866821,0,0,0.7933533191680908],"type":"VEC4"},{"bufferView":97,"componentType":5126,"count":2,"max":[0.25],"min":[0],"type":"SCALAR"},{"bufferView":98,"componentType":5126,"count":2,"max":[0.36243805289268494,0,0,0.9997619986534119],"min":[0.02181488461792469,0,0,0.9320078492164612],"type":"VEC4"},{"bufferView":99,"componentType":5126,"count":2,"max":[0.25],"min":[0],"type":"SCALAR"},{"bufferView":100,"componentType":5126,"count":2,"max":[0.15212339162826538,0,0,0.9997619986534119],"min":[-0.02181488461792469,0,0,0.9883615374565125],"type":"VEC4"}],"materials":[{"pbrMetallicRoughness":{"metallicFactor":0,"roughnessFactor":1,"baseColorTexture":{"index":0}},"alphaMode":"MASK","alphaCutoff":0.05,"doubleSided":true}],"textures":[{"sampler":0,"source":0,"name":"CapuchinMonkey_BaseColor.png"}],"samplers":[{"magFilter":9728,"minFilter":9728,"wrapS":33071,"wrapT":33071}],"images":[{"mimeType":"image/png","uri":"data:image/png;base64,"}],"meshes":[{"primitives":[{"mode":4,"attributes":{"POSITION":0,"NORMAL":1,"TEXCOORD_0":2,"JOINTS_0":3,"WEIGHTS_0":4},"indices":5,"material":0}]}],"skins":[{"inverseBindMatrices":6,"joints":[12,4,1,0,3,2,9,6,5,8,7,10,11],"skeleton":12}],"animations":[{"name":"idle","samplers":[{"input":7,"output":8,"interpolation":"LINEAR"},{"input":9,"output":10,"interpolation":"LINEAR"},{"input":11,"output":12,"interpolation":"LINEAR"},{"input":13,"output":14,"interpolation":"LINEAR"},{"input":15,"output":16,"interpolation":"LINEAR"},{"input":17,"output":18,"interpolation":"LINEAR"},{"input":19,"output":20,"interpolation":"LINEAR"},{"input":21,"output":22,"interpolation":"LINEAR"},{"input":23,"output":24,"interpolation":"LINEAR"},{"input":25,"output":26,"interpolation":"LINEAR"},{"input":27,"output":28,"interpolation":"LINEAR"},{"input":29,"output":30,"interpolation":"LINEAR"},{"input":31,"output":32,"interpolation":"LINEAR"}],"channels":[{"sampler":0,"target":{"node":12,"path":"rotation"}},{"sampler":1,"target":{"node":9,"path":"rotation"}},{"sampler":2,"target":{"node":6,"path":"rotation"}},{"sampler":3,"target":{"node":4,"path":"rotation"}},{"sampler":4,"target":{"node":1,"path":"rotation"}},{"sampler":5,"target":{"node":0,"path":"rotation"}},{"sampler":6,"target":{"node":3,"path":"rotation"}},{"sampler":7,"target":{"node":2,"path":"rotation"}},{"sampler":8,"target":{"node":5,"path":"rotation"}},{"sampler":9,"target":{"node":8,"path":"rotation"}},{"sampler":10,"target":{"node":7,"path":"rotation"}},{"sampler":11,"target":{"node":10,"path":"rotation"}},{"sampler":12,"target":{"node":11,"path":"rotation"}}]},{"name":"walk","samplers":[{"input":33,"output":34,"interpolation":"LINEAR"},{"input":35,"output":36,"interpolation":"LINEAR"},{"input":37,"output":38,"interpolation":"LINEAR"},{"input":39,"output":40,"interpolation":"LINEAR"},{"input":41,"output":42,"interpolation":"LINEAR"},{"input":43,"output":44,"interpolation":"LINEAR"}],"channels":[{"sampler":0,"target":{"node":12,"path":"rotation"}},{"sampler":1,"target":{"node":6,"path":"rotation"}},{"sampler":2,"target":{"node":1,"path":"rotation"}},{"sampler":3,"target":{"node":3,"path":"rotation"}},{"sampler":4,"target":{"node":8,"path":"rotation"}},{"sampler":5,"target":{"node":10,"path":"rotation"}}]},{"name":"run","samplers":[{"input":45,"output":46,"interpolation":"LINEAR"},{"input":47,"output":48,"interpolation":"LINEAR"},{"input":49,"output":50,"interpolation":"LINEAR"},{"input":51,"output":52,"interpolation":"LINEAR"},{"input":53,"output":54,"interpolation":"LINEAR"},{"input":55,"output":56,"interpolation":"LINEAR"},{"input":57,"output":58,"interpolation":"LINEAR"}],"channels":[{"sampler":0,"target":{"node":12,"path":"rotation"}},{"sampler":1,"target":{"node":12,"path":"translation"}},{"sampler":2,"target":{"node":6,"path":"rotation"}},{"sampler":3,"target":{"node":1,"path":"rotation"}},{"sampler":4,"target":{"node":3,"path":"rotation"}},{"sampler":5,"target":{"node":8,"path":"rotation"}},{"sampler":6,"target":{"node":10,"path":"rotation"}}]},{"name":"jump","samplers":[{"input":59,"output":60,"interpolation":"LINEAR"},{"input":61,"output":62,"interpolation":"LINEAR"},{"input":63,"output":64,"interpolation":"LINEAR"},{"input":65,"output":66,"interpolation":"LINEAR"},{"input":67,"output":68,"interpolation":"LINEAR"},{"input":69,"output":70,"interpolation":"LINEAR"},{"input":71,"output":72,"interpolation":"LINEAR"}],"channels":[{"sampler":0,"target":{"node":12,"path":"rotation"}},{"sampler":1,"target":{"node":12,"path":"translation"}},{"sampler":2,"target":{"node":6,"path":"rotation"}},{"sampler":3,"target":{"node":1,"path":"rotation"}},{"sampler":4,"target":{"node":3,"path":"rotation"}},{"sampler":5,"target":{"node":8,"path":"rotation"}},{"sampler":6,"target":{"node":10,"path":"rotation"}}]},{"name":"fall","samplers":[{"input":73,"output":74,"interpolation":"LINEAR"},{"input":75,"output":76,"interpolation":"LINEAR"},{"input":77,"output":78,"interpolation":"LINEAR"},{"input":79,"output":80,"interpolation":"LINEAR"},{"input":81,"output":82,"interpolation":"LINEAR"},{"input":83,"output":84,"interpolation":"LINEAR"},{"input":85,"output":86,"interpolation":"LINEAR"}],"channels":[{"sampler":0,"target":{"node":12,"path":"rotation"}},{"sampler":1,"target":{"node":6,"path":"rotation"}},{"sampler":2,"target":{"node":1,"path":"rotation"}},{"sampler":3,"target":{"node":3,"path":"rotation"}},{"sampler":4,"target":{"node":8,"path":"rotation"}},{"sampler":5,"target":{"node":10,"path":"rotation"}},{"sampler":6,"target":{"node":11,"path":"rotation"}}]},{"name":"land","samplers":[{"input":87,"output":88,"interpolation":"LINEAR"},{"input":89,"output":90,"interpolation":"LINEAR"},{"input":91,"output":92,"interpolation":"LINEAR"},{"input":93,"output":94,"interpolation":"LINEAR"},{"input":95,"output":96,"interpolation":"LINEAR"},{"input":97,"output":98,"interpolation":"LINEAR"},{"input":99,"output":100,"interpolation":"LINEAR"}],"channels":[{"sampler":0,"target":{"node":12,"path":"translation"}},{"sampler":1,"target":{"node":6,"path":"rotation"}},{"sampler":2,"target":{"node":1,"path":"rotation"}},{"sampler":3,"target":{"node":3,"path":"rotation"}},{"sampler":4,"target":{"node":8,"path":"rotation"}},{"sampler":5,"target":{"node":10,"path":"rotation"}},{"sampler":6,"target":{"node":11,"path":"rotation"}}]}]}