{"asset":{"version":"2.0","generator":"Blockbench 5.0.7 glTF exporter"},"scenes":[{"nodes":[0],"name":"blockbench_export"}],"scene":0,"nodes":[{"name":"LeftHand","mesh":0}],"bufferViews":[{"buffer":0,"byteOffset":0,"byteLength":4164,"target":34962,"byteStride":12},{"buffer":0,"byteOffset":4164,"byteLength":4164,"target":34962,"byteStride":12},{"buffer":0,"byteOffset":8328,"byteLength":2776,"target":34962,"byteStride":8},{"buffer":0,"byteOffset":11104,"byteLength":1004,"target":34963}],"buffers":[{"byteLength":12108,"uri":"data:application/octet-stream;base64,"}],"accessors":[{"bufferView":0,"componentType":5126,"count":347,"max":[0.020723246037960052,0.011927885003387928,0.03099491260945797],"min":[-0.027909254655241966,-0.005804615560919046,-0.05647321417927742],"type":"VEC3"},{"bufferView":1,"componentType":5126,"count":347,"max":[0.9988294243812561,0.9839654564857483,0.9805896878242493],"min":[-0.9959516525268555,-0.9999971985816956,-0.6862393021583557],"type":"VEC3"},{"bufferView":2,"componentType":5126,"count":347,"max":[0.967769980430603,0.5302412509918213],"min":[0,0],"type":"VEC2"},{"bufferView":3,"componentType":5123,"count":501,"max":[346],"min":[0],"type":"SCALAR"}],"materials":[{"pbrMetallicRoughness":{"metallicFactor":0,"roughnessFactor":1},"alphaMode":"MASK","alphaCutoff":0.05,"doubleSided":true}],"meshes":[{"primitives":[{"mode":4,"attributes":{"POSITION":0,"NORMAL":1,"TEXCOORD_0":2},"indices":3,"material":0}]}]}