{"asset":{"version":"2.0","generator":"Blockbench 5.0.7 glTF exporter"},"scenes":[{"nodes":[0],"name":"blockbench_export"}],"scene":0,"nodes":[{"name":"RightHand","mesh":0}],"bufferViews":[{"buffer":0,"byteOffset":0,"byteLength":3792,"target":34962,"byteStride":12},{"buffer":0,"byteOffset":3792,"byteLength":3792,"target":34962,"byteStride":12},{"buffer":0,"byteOffset":7584,"byteLength":2528,"target":34962,"byteStride":8},{"buffer":0,"byteOffset":10112,"byteLength":912,"target":34963}],"buffers":[{"byteLength":11024,"uri":"data:application/octet-stream;base64,"}],"accessors":[{"bufferView":0,"componentType":5126,"count":316,"max":[0.031613126397132874,0.017101874575018883,0.027274999767541885],"min":[-0.017019374296069145,-0.0006306249997578561,-0.060193125158548355],"type":"VEC3"},{"bufferView":1,"componentType":5126,"count":316,"max":[0.9959490895271301,0.9839720726013184,0.9466714262962341],"min":[-0.9991365075111389,-0.9999997615814209,-0.6694881916046143],"type":"VEC3"},{"bufferView":2,"componentType":5126,"count":316,"max":[0.967769980430603,0.5302412509918213],"min":[0,0],"type":"VEC2"},{"bufferView":3,"componentType":5123,"count":456,"max":[315],"min":[0],"type":"SCALAR"}],"materials":[{"pbrMetallicRoughness":{"metallicFactor":0,"roughnessFactor":1},"alphaMode":"MASK","alphaCutoff":0.05,"doubleSided":true}],"meshes":[{"primitives":[{"mode":4,"attributes":{"POSITION":0,"NORMAL":1,"TEXCOORD_0":2},"indices":3,"material":0}]}]}